<?xml version="1.0" encoding="utf-8"?>
<!-- Generator: Adobe Illustrator 26.5.2, SVG Export Plug-In . SVG Version: 6.00 Build 0)  -->
<svg version="1.1" id="Ebene_1" xmlns="http://www.w3.org/2000/svg" xmlns:xlink="http://www.w3.org/1999/xlink" x="0px" y="0px"
	 viewBox="0 0 258 66" style="enable-background:new 0 0 258 66;" xml:space="preserve">
<style type="text/css">
	.st0{fill:#FFFFFF;}
</style>
<g>
	<path class="st0" d="M18.29,39.11H7.58v19.41h10.71v-2.75h-7.78v-6.49h7.55v-2.75h-7.55v-4.66h7.78V39.11L18.29,39.11z
		 M32.47,48.34c0.79-0.99,1.18-2.17,1.18-3.54c0-1.76-0.63-3.18-1.89-4.25c-1.14-0.96-2.99-1.45-5.56-1.45h-3.43v19.41h2.93v-7.94
		h0.53l5.54,7.94h3.58l-6.01-8.27C30.64,49.97,31.68,49.33,32.47,48.34L32.47,48.34z M25.71,41.86h1.04c2.7,0,4.05,0.99,4.05,2.98
		c0,2.12-1.39,3.18-4.16,3.18h-0.93V41.86L25.71,41.86z M38.92,39.11v19.41h2.93V39.11H38.92L38.92,39.11z M50.08,58.51V44.92
		l14.15,14.77V39.11H61.3V52.6L47.15,37.79v20.72H50.08L50.08,58.51z M72.46,58.51V44.92l14.15,14.77V39.11h-2.93V52.6L69.53,37.79
		v20.72H72.46L72.46,58.51z M102.61,39.11H91.9v19.41h10.71v-2.75h-7.78v-6.49h7.55v-2.75h-7.55v-4.66h7.78V39.11L102.61,39.11z
		 M116.79,48.34c0.79-0.99,1.18-2.17,1.18-3.54c0-1.76-0.63-3.18-1.89-4.25c-1.14-0.96-2.99-1.45-5.56-1.45h-3.43v19.41h2.93v-7.94
		h0.53l5.54,7.94h3.58l-6.01-8.27C114.96,49.97,116,49.33,116.79,48.34L116.79,48.34z M110.03,41.86h1.04c2.7,0,4.05,0.99,4.05,2.98
		c0,2.12-1.39,3.18-4.16,3.18h-0.93V41.86L110.03,41.86z M122.95,39.11V51.6c0,2.04,0.64,3.73,1.91,5.05
		c1.42,1.47,3.18,2.21,5.27,2.21s3.85-0.74,5.28-2.21c1.27-1.32,1.91-3.01,1.91-5.05V39.11h-2.93V50.8c0,1.69-0.27,2.91-0.82,3.66
		c-0.81,1.11-1.96,1.67-3.44,1.67s-2.62-0.56-3.43-1.67c-0.54-0.77-0.82-1.99-0.82-3.66V39.11H122.95L122.95,39.11z M145.54,58.51
		V44.92l14.15,14.77V39.11h-2.93V52.6l-14.15-14.81v20.72H145.54L145.54,58.51z M175.16,51.16H180c-0.13,1.37-0.78,2.54-1.92,3.52
		c-1.15,0.97-2.44,1.46-3.88,1.46c-1.69,0-3.26-0.65-4.71-1.95c-1.55-1.4-2.32-3.18-2.32-5.34c0-2.09,0.69-3.84,2.09-5.23
		c1.39-1.42,3.11-2.12,5.16-2.12c2.29,0,4.23,1.06,5.82,3.18l2.09-2c-1.21-1.39-2.45-2.4-3.71-3.02c-1.32-0.62-2.73-0.93-4.25-0.93
		c-2.82,0-5.22,0.98-7.19,2.95c-1.97,1.96-2.95,4.35-2.95,7.16c0,2.76,0.97,5.12,2.9,7.09c1.93,1.96,4.26,2.94,6.98,2.94
		c2.78,0,5.07-1.01,6.88-3.04c0.8-0.9,1.36-1.88,1.7-2.92c0.34-1.12,0.52-2.41,0.52-3.87V48.4h-8.02v2.76H175.16z M193.24,38.73
		c-1.66,0-3.05,0.49-4.16,1.48c-1.11,0.98-1.67,2.2-1.67,3.66c0,2.16,1.33,3.8,3.99,4.93l1.87,0.78c0.49,0.21,0.9,0.43,1.26,0.66
		c0.35,0.23,0.64,0.48,0.86,0.74c0.22,0.26,0.38,0.55,0.49,0.87c0.1,0.31,0.16,0.66,0.16,1.04c0,0.94-0.3,1.71-0.9,2.33
		c-0.6,0.61-1.36,0.92-2.27,0.92c-1.16,0-2.04-0.42-2.64-1.26c-0.33-0.44-0.57-1.22-0.7-2.36l-2.97,0.65
		c0.27,1.81,0.94,3.21,2.02,4.21c1.1,1,2.49,1.5,4.17,1.5c1.78,0,3.26-0.59,4.46-1.76c1.19-1.16,1.79-2.64,1.79-4.42
		c0-1.33-0.36-2.46-1.09-3.37s-1.88-1.69-3.46-2.33l-1.94-0.79c-1.41-0.58-2.11-1.34-2.11-2.29c0-0.69,0.27-1.26,0.8-1.71
		c0.54-0.46,1.21-0.69,2.02-0.69c0.66,0,1.2,0.13,1.62,0.4c0.4,0.23,0.83,0.74,1.27,1.51l2.38-1.41
		C197.22,39.82,195.47,38.73,193.24,38.73L193.24,38.73L193.24,38.73z M205.48,56.26c1.99,1.73,4.24,2.6,6.75,2.6
		c2.83,0,5.25-0.98,7.25-2.93c1.99-1.94,2.99-4.31,2.99-7.1c0-2.77-0.99-5.15-2.98-7.13c-1.98-1.98-4.35-2.97-7.11-2.97
		c-2.8,0-5.2,0.98-7.19,2.94c-2,1.96-3,4.31-3,7.04C202.19,51.83,203.29,54.34,205.48,56.26L205.48,56.26L205.48,56.26z
		 M207.23,43.61c1.39-1.41,3.1-2.11,5.12-2.11c2.03,0,3.73,0.7,5.1,2.11c1.38,1.4,2.07,3.13,2.07,5.2c0,2.04-0.7,3.78-2.1,5.2
		c-1.4,1.41-3.12,2.11-5.15,2.11c-1.88,0-3.53-0.69-4.97-2.07s-2.16-3.15-2.16-5.29C205.14,46.71,205.84,45,207.23,43.61
		L207.23,43.61L207.23,43.61z M236.49,48.34c0.79-0.99,1.18-2.17,1.18-3.54c0-1.76-0.63-3.18-1.89-4.25
		c-1.14-0.96-2.99-1.45-5.56-1.45h-3.43v19.41h2.93v-7.94h0.53l5.54,7.94h3.58l-6.01-8.27C234.66,49.97,235.7,49.33,236.49,48.34
		L236.49,48.34z M229.73,41.86h1.04c2.7,0,4.05,0.99,4.05,2.98c0,2.12-1.39,3.18-4.16,3.18h-0.93V41.86L229.73,41.86z M252.52,41.86
		v-2.75h-11.84v2.75h4.46v16.65h2.93V41.86H252.52L252.52,41.86z"/>
	<path class="st0" d="M12.04,8.22H7v19.41h5.04v-8h7.28v8h5.05V8.22h-5.05v7.49h-7.28V8.22L12.04,8.22z M34.46,20.42l2.27-6.46
		L39,20.42H34.46L34.46,20.42z M41.49,27.62h5.38L39.48,8.21h-5.51l-7.39,19.41h5.38l1.16-3.37h7.21L41.49,27.62L41.49,27.62z
		 M62.34,8.68c-0.82-0.34-1.61-0.6-2.36-0.76s-1.51-0.24-2.28-0.24c-1.36,0-2.65,0.25-3.89,0.76s-2.32,1.21-3.26,2.11
		c-0.94,0.9-1.68,1.97-2.24,3.22c-0.56,1.24-0.84,2.61-0.84,4.11c0,1.49,0.28,2.87,0.85,4.13s1.32,2.35,2.25,3.27
		c0.94,0.92,2.02,1.63,3.24,2.14c1.23,0.51,2.51,0.76,3.85,0.76c0.65,0,1.31-0.06,1.98-0.19s1.39-0.33,2.16-0.6l0.51-0.18v-5.97
		c-1.29,1.37-2.74,2.06-4.35,2.06c-0.74,0-1.42-0.14-2.06-0.41s-1.19-0.65-1.66-1.13s-0.84-1.05-1.11-1.7
		c-0.27-0.65-0.4-1.36-0.4-2.14c0-0.75,0.13-1.46,0.4-2.11c0.27-0.65,0.63-1.21,1.09-1.69c0.46-0.47,1.02-0.85,1.66-1.12
		s1.34-0.41,2.1-0.41c1.72,0,3.16,0.71,4.32,2.14V8.68H62.34z M71.4,8.22h-5.04v19.41h5.04v-8h7.28v8h5.04V8.22h-5.04v7.49H71.4
		V8.22L71.4,8.22z M100.46,9.25c-0.96-0.51-1.97-0.9-3.01-1.17c-1.05-0.27-2.05-0.4-3.01-0.4c-1.03,0-1.96,0.15-2.79,0.46
		c-0.83,0.31-1.54,0.74-2.11,1.3c-0.58,0.56-1.02,1.23-1.34,2.01c-0.32,0.78-0.48,1.65-0.48,2.61s0.15,1.75,0.45,2.38
		s0.7,1.15,1.18,1.56c0.49,0.41,1.05,0.74,1.67,0.99c0.63,0.25,1.27,0.48,1.92,0.68c0.55,0.19,1.02,0.36,1.4,0.51
		c0.39,0.15,0.7,0.32,0.94,0.5s0.41,0.38,0.52,0.59c0.1,0.21,0.15,0.47,0.15,0.76c0,0.48-0.2,0.91-0.6,1.29s-1.02,0.57-1.84,0.57
		c-0.72,0-1.45-0.16-2.19-0.49s-1.48-0.82-2.24-1.49l-2.16,4.07c2.09,1.46,4.37,2.19,6.82,2.19c1.18,0,2.24-0.16,3.18-0.48
		c0.93-0.32,1.72-0.76,2.37-1.34c0.64-0.57,1.13-1.27,1.47-2.07c0.33-0.81,0.5-1.71,0.5-2.7c0-1.48-0.38-2.67-1.15-3.59
		c-0.76-0.92-1.97-1.65-3.62-2.2c-0.41-0.14-0.83-0.27-1.25-0.39c-0.42-0.12-0.8-0.26-1.13-0.42c-0.33-0.16-0.6-0.36-0.81-0.58
		s-0.31-0.51-0.31-0.85c0-0.5,0.21-0.9,0.62-1.21s0.94-0.46,1.6-0.46c0.52,0,1.05,0.11,1.6,0.32c0.55,0.21,1.1,0.54,1.65,0.99
		L100.46,9.25L100.46,9.25z M118.4,8.68c-0.82-0.34-1.61-0.6-2.36-0.76s-1.51-0.24-2.28-0.24c-1.36,0-2.65,0.25-3.89,0.76
		c-1.24,0.51-2.32,1.21-3.26,2.11c-0.93,0.9-1.68,1.97-2.24,3.22c-0.56,1.24-0.84,2.61-0.84,4.11c0,1.49,0.28,2.87,0.85,4.13
		s1.32,2.35,2.25,3.27c0.93,0.92,2.02,1.63,3.24,2.14c1.23,0.51,2.51,0.76,3.85,0.76c0.65,0,1.31-0.06,1.98-0.19s1.39-0.33,2.16-0.6
		l0.51-0.18v-5.97c-1.29,1.37-2.74,2.06-4.35,2.06c-0.74,0-1.42-0.14-2.06-0.41c-0.64-0.27-1.19-0.65-1.66-1.13s-0.84-1.05-1.11-1.7
		c-0.27-0.65-0.4-1.36-0.4-2.14c0-0.75,0.13-1.46,0.4-2.11s0.63-1.21,1.09-1.69c0.46-0.47,1.02-0.85,1.66-1.12s1.34-0.41,2.1-0.41
		c1.72,0,3.16,0.71,4.32,2.14V8.68H118.4z M127.46,8.22h-5.04v19.41h5.04v-8h7.29v8h5.04V8.22h-5.04v7.49h-7.29V8.22L127.46,8.22z
		 M149.88,20.42l2.27-6.46l2.27,6.46H149.88L149.88,20.42z M156.91,27.62h5.38L154.9,8.21h-5.51L142,27.62h5.38l1.16-3.37h7.21
		L156.91,27.62L156.91,27.62z M169.54,12.1h0.95c0.99,0,1.76,0.21,2.29,0.62s0.8,1,0.8,1.78s-0.27,1.36-0.8,1.78
		c-0.53,0.41-1.3,0.62-2.29,0.62h-0.95V12.1L169.54,12.1z M174.54,19.67c1.39-0.33,2.44-0.95,3.15-1.87
		c0.71-0.92,1.07-2.11,1.07-3.59c0-0.82-0.13-1.6-0.4-2.32s-0.66-1.36-1.18-1.9c-0.52-0.55-1.19-0.98-1.99-1.3
		c-0.81-0.32-1.75-0.48-2.83-0.48h-7.85v19.41h5.04v-7.46l4.81,7.46h6.28L174.54,19.67L174.54,19.67z M188.77,20.42l2.26-6.46
		l2.26,6.46H188.77L188.77,20.42z M195.8,27.62h5.38l-7.39-19.41h-5.51l-7.39,19.41h5.38l1.16-3.37h7.21L195.8,27.62L195.8,27.62z
		 M223.3,27.62h3.21L217.25,7l-9.6,20.62h3.15l2.16-4.71h8.31L223.3,27.62L223.3,27.62z M214.17,20.16l3.02-6.6l2.88,6.6H214.17
		L214.17,20.16z M228.93,8.22v19.41h8.63v-2.75h-5.71V8.23h-2.92V8.22z M246.14,7.84c-1.66,0-3.05,0.49-4.16,1.48
		c-1.11,0.98-1.67,2.2-1.67,3.66c0,2.16,1.33,3.8,3.98,4.93l1.87,0.78c0.49,0.21,0.9,0.43,1.26,0.66c0.35,0.23,0.64,0.48,0.86,0.74
		c0.22,0.26,0.39,0.55,0.49,0.87c0.11,0.31,0.16,0.66,0.16,1.04c0,0.94-0.3,1.71-0.9,2.33c-0.6,0.61-1.36,0.92-2.27,0.92
		c-1.16,0-2.04-0.42-2.64-1.26c-0.34-0.44-0.57-1.22-0.7-2.36l-2.97,0.65c0.27,1.81,0.94,3.21,2.02,4.21c1.1,1,2.49,1.5,4.17,1.5
		c1.78,0,3.26-0.59,4.46-1.76c1.19-1.16,1.79-2.64,1.79-4.42c0-1.33-0.37-2.46-1.09-3.37c-0.73-0.92-1.88-1.69-3.46-2.33l-1.94-0.79
		c-1.41-0.58-2.11-1.34-2.11-2.29c0-0.69,0.27-1.26,0.8-1.71c0.54-0.46,1.21-0.69,2.02-0.69c0.66,0,1.2,0.13,1.62,0.4
		c0.4,0.23,0.83,0.74,1.27,1.51l2.38-1.41C250.13,8.93,248.38,7.84,246.14,7.84L246.14,7.84L246.14,7.84z"/>
</g>
</svg>
