<?xml version="1.0" encoding="utf-8"?>
<!-- Generator: Adobe Illustrator 26.0.3, SVG Export Plug-In . SVG Version: 6.00 Build 0)  -->
<svg version="1.1" id="Ebene_1" xmlns="http://www.w3.org/2000/svg" xmlns:xlink="http://www.w3.org/1999/xlink" x="0px" y="0px"
	 viewBox="0 0 1001.4 504.2" style="enable-background:new 0 0 1001.4 504.2;" xml:space="preserve">
<style type="text/css">
	.st0{fill:#80A2C8;}
	.st1{fill:#323A66;}
</style>
<g>
	<polygon class="st0" points="86.3,314.7 49.5,281.5 86.4,248.7 86.2,237.1 43.1,275.8 0.2,237.1 0,248.7 73.6,314.7 0,314.7 
		0,323.2 86.4,323.2 86.4,315.3 86.7,315.1 86.4,314.8 86.4,314.7 86.3,314.7 	"/>
	<polygon class="st0" points="86.4,87.1 86.4,78.6 86.4,9.1 86.4,0.6 77.9,0.6 8.5,0.6 0,0.6 0,9.1 0,87.1 8.5,87.1 8.5,9.1 
		77.9,9.1 77.9,78.6 43.2,78.6 43.2,87.1 77.9,87.1 86.4,87.1 	"/>
	<polygon class="st0" points="86.4,205.2 86.4,196.7 86.4,127.2 86.4,118.7 77.9,118.7 8.5,118.7 0,118.7 0,127.2 0,205.2 
		8.5,205.2 8.5,127.2 77.9,127.2 77.9,196.7 43.2,196.7 43.2,205.2 77.9,205.2 86.4,205.2 	"/>
	<g>
		<path class="st1" d="M204.9,87.1h-8.6V21.6l-29.9,65.5h-9l-30.2-65.7v65.7h-8.6V0.7h8.6l34.7,76.4l34.4-76.4h8.6V87.1z"/>
		<path class="st1" d="M221.5,43.9c0-24.2,19.8-43.9,44-43.9s43.9,19.7,43.9,43.9c0,24.2-19.7,43.9-43.9,43.9S221.5,68.1,221.5,43.9
			z M300.8,43.9c0-19.4-15.8-35.3-35.3-35.3c-19.4,0-35.3,15.8-35.3,35.3c0,19.4,15.8,35.3,35.3,35.3
			C285,79.2,300.8,63.3,300.8,43.9z"/>
		<path class="st1" d="M329.7,59.6c0,5.4,2.6,11.2,7.2,15.1c3.1,2.6,7.2,4.4,12,4.4c11.9,0,17.9-7.6,17.9-15.6c0-8.6-5.3-13-17-16.1
			l-7.2-1.9c-12.8-3.5-19.3-10-19.3-22.7c0-11.8,10.4-22.9,26-22.9c17,0,24.8,14,24.8,25.2h-8.8c0-4.3-1.6-8.6-4.4-11.8
			c-2.8-2.9-6.8-4.8-11.8-4.8c-10.6,0-17.1,7-17.1,14.3c0,7.7,2.6,11.4,12.7,14.3l7.1,2c16.7,4.8,23.7,12,23.7,24.3
			c0,12.2-9.7,24.2-26.6,24.2c-15.8,0-28.4-12.6-28.4-28.2H329.7z"/>
		<path class="st1" d="M446.9,9.4h-46.8v30.2h42.5v8.6h-42.5v30.2h46.8v8.6h-55.4V0.7h55.4V9.4z"/>
		<path class="st1" d="M469.2,59.6c0,5.4,2.6,11.2,7.2,15.1c3.1,2.6,7.2,4.4,12,4.4c11.9,0,17.9-7.6,17.9-15.6c0-8.6-5.3-13-17-16.1
			l-7.2-1.9c-12.8-3.5-19.3-10-19.3-22.7c0-11.8,10.4-22.9,26-22.9c17,0,24.8,14,24.8,25.2h-8.8c0-4.3-1.6-8.6-4.4-11.8
			c-2.8-2.9-6.8-4.8-11.8-4.8c-10.6,0-17.1,7-17.1,14.3c0,7.7,2.6,11.4,12.7,14.3l7.1,2c16.7,4.8,23.7,12,23.7,24.3
			c0,12.2-9.7,24.2-26.6,24.2c-15.8,0-28.4-12.6-28.4-28.2H469.2z"/>
	</g>
	<g>
		<path class="st1" d="M204.9,205.5h-8.6V140l-29.9,65.5h-9l-30.2-65.7v65.7h-8.6v-86.3h8.6l34.7,76.4l34.4-76.4h8.6V205.5z"/>
		<path class="st1" d="M281.5,127.8h-46.8V158h42.5v8.6h-42.5v30.2h46.8v8.6h-55.4v-86.3h55.4V127.8z"/>
		<path class="st1" d="M368.9,205.5h-8.6l-51.7-72.1v72.1H300v-86.3h8.6l51.7,72.2v-72.2h8.6V205.5z"/>
		<path class="st1" d="M462.2,162.3c0,26.7-21.1,43.2-43.1,43.2h-29v-86.3h29C441,119.2,462.2,135.6,462.2,162.3z M453.5,162.3
			c0-19.1-15.5-34.5-34.4-34.5h-20.4v69.1h20.4C438.1,196.9,453.5,181.4,453.5,162.3z"/>
		<path class="st1" d="M534.2,127.8h-46.8V158h42.5v8.6h-42.5v30.2h46.8v8.6h-55.4v-86.3h55.4V127.8z"/>
		<path class="st1" d="M602.1,196.9v8.6h-49.4v-86.3h8.6v77.7H602.1z"/>
		<path class="st1" d="M618.4,178c0,5.4,2.6,11.2,7.2,15.1c3.1,2.6,7.2,4.4,12,4.4c11.9,0,17.9-7.6,17.9-15.6c0-8.6-5.3-13-17-16.1
			l-7.2-1.9c-12.8-3.5-19.3-10-19.3-22.7c0-11.8,10.4-22.9,26-22.9c17,0,24.8,14,24.8,25.2h-8.8c0-4.3-1.6-8.6-4.4-11.8
			c-2.8-2.9-6.8-4.8-11.8-4.8c-10.6,0-17.1,7-17.1,14.3c0,7.7,2.6,11.4,12.7,14.3l7.1,2c16.7,4.8,23.7,12,23.7,24.3
			c0,12.2-9.7,24.2-26.6,24.2c-15.8,0-28.4-12.6-28.4-28.2H618.4z"/>
		<path class="st1" d="M683.9,178c0,5.4,2.6,11.2,7.2,15.1c3.1,2.6,7.2,4.4,12,4.4c11.9,0,17.9-7.6,17.9-15.6c0-8.6-5.3-13-17-16.1
			l-7.2-1.9c-12.8-3.5-19.3-10-19.3-22.7c0-11.8,10.4-22.9,26-22.9c17,0,24.8,14,24.8,25.2h-8.8c0-4.3-1.6-8.6-4.4-11.8
			c-2.8-2.9-6.8-4.8-11.8-4.8c-10.6,0-17.1,7-17.1,14.3c0,7.7,2.6,11.4,12.7,14.3l7.1,2c16.7,4.8,23.7,12,23.7,24.3
			c0,12.2-9.7,24.2-26.6,24.2c-15.8,0-28.4-12.6-28.4-28.2H683.9z"/>
		<path class="st1" d="M741.2,162.3c0-24.2,19.8-43.9,44-43.9s43.9,19.7,43.9,43.9c0,24.2-19.7,43.9-43.9,43.9
			S741.2,186.6,741.2,162.3z M820.5,162.3c0-19.4-15.8-35.3-35.3-35.3c-19.4,0-35.3,15.8-35.3,35.3c0,19.4,15.8,35.3,35.3,35.3
			C804.6,197.6,820.5,181.8,820.5,162.3z"/>
		<path class="st1" d="M911.3,205.5h-8.6v-38.9h-48.3v38.9h-8.6v-86.3h8.6V158h48.3v-38.9h8.6V205.5z"/>
		<path class="st1" d="M1001.4,205.5h-8.6l-51.7-72.1v72.1h-8.6v-86.3h8.6l51.7,72.2v-72.2h8.6V205.5z"/>
	</g>
	<g>
		<path class="st1" d="M114,280.8c0-24.2,19.8-43.9,44-43.9c17.4,0,31.9,10.9,36.7,27.3h-9.5c-2-5.4-5.9-10.1-10.8-13.4
			c-4.8-3.4-10.4-5.3-16.4-5.3c-19.4,0-35.3,15.8-35.3,35.3c0,19.4,15.8,35.3,35.3,35.3c6.6,0,12.4-1.8,17-5.2
			c4.9-3.4,8.6-8.3,11-14.4h9.1c-5.3,17.3-19.7,28.2-37.2,28.2C133.8,324.7,114,305.1,114,280.8z"/>
		<path class="st1" d="M266.5,246.3h-46.8v30.2h42.5v8.6h-42.5v30.2h46.8v8.6h-55.4v-86.3h55.4V246.3z"/>
		<path class="st1" d="M353.9,324h-8.6l-51.7-72.1V324H285v-86.3h8.6l51.7,72.2v-72.2h8.6V324z"/>
		<path class="st1" d="M427.7,246.3h-26.6V324h-8.6v-77.7H366v-0.5h-0.1v-8.2h61.9V246.3z"/>
		<path class="st1" d="M495.1,246.3h-46.8v30.2h42.5v8.6h-42.5v30.2h46.8v8.6h-55.4v-86.3h55.4V246.3z"/>
		<path class="st1" d="M572.7,324h-9.6l-17.4-34.3h-23.5V324h-8.6v-86.3h32.1c15,0,26,13,26,26c0,10.4-6.8,20.6-17.3,24.5L572.7,324
			z M522.2,281.1h23.5c9.6,0,17.4-7.9,17.4-17.4c0-9.6-7.8-17.4-17.4-17.4h-23.5V281.1z"/>
	</g>
	<g>
		<path class="st1" d="M147.3,368.2h-24.6V384H145v4.5h-22.3v15.9h24.6v4.5h-29.1v-45.4h29.1V368.2z"/>
		<path class="st1" d="M182.6,409h-4.5v-5.4c-2.6,3.8-6.6,5.8-10.8,5.8c-6.2,0-11.3-5.9-11.3-13.1v-19.8h4.5v19.8
			c0,4.8,3.9,8.7,8.7,8.7c4.9,0,8.8-4,8.8-8.7v-19.8h4.5V409z"/>
		<path class="st1" d="M208.7,376.3v4.3c-0.4-0.1-2.3-0.1-2.5-0.1c-4.5,0-8.7,3-8.7,9.5v19H193v-32.5h4.5v4.9
			c1.8-3.1,4.5-5.2,8.1-5.2C207,376.1,208.1,376.2,208.7,376.3z"/>
		<path class="st1" d="M212.9,392.7c0-9.2,6.5-16.6,15.4-16.6h0.1c8.9,0,15.4,7.4,15.4,16.6c0,9.2-6.5,16.6-15.4,16.6h-0.1
			C219.3,409.4,212.9,401.9,212.9,392.7z M228.4,404.8c6.4,0,10.8-5.4,10.8-12.1c0-6.5-4.4-12.1-10.8-12.1h-0.1
			c-6.5,0.1-10.9,5.4-10.9,12.1S221.8,404.8,228.4,404.8L228.4,404.8z"/>
		<path class="st1" d="M282,392.7c0,9.3-6.5,16.6-14.1,16.6c-5.1,0-9.1-2.5-11.6-6.4v20.8h-4.5v-47.3h4.5v5.9
			c2.5-3.8,6.6-6.3,11.6-6.3C275.5,376.1,282,383.4,282,392.7z M277.2,392.7c0-6.9-4.2-12.2-10.8-12.2c-6.6,0-10.2,5.4-10.2,12.2
			c0,6.9,3.7,12.2,10.2,12.2C273,404.9,277.2,399.6,277.2,392.7z"/>
		<path class="st1" d="M303.6,404.8c6,0,9-4.3,9.5-5.9h4.9c-0.4,2.6-4.7,10.5-14.4,10.5c-9.4,0-15.4-7.3-15.4-16.6
			c0-9.2,6.2-16.6,15.2-16.6s15.2,7.4,15.2,16c0,0.8-0.1,1.5-0.1,2.3h-25.6C293.4,400.4,297.3,404.8,303.6,404.8z M313.9,390.3
			c-0.8-5.3-4.7-9.6-10.5-9.6c-5.7,0-9.6,4.2-10.5,9.6H313.9z"/>
		<path class="st1" d="M354.7,376.5v3.9v12.2c0,5.4,0,7.1,0,12.5v0.1v3.8h-4.6c0-3.1,0-5,0-6.2c-2.3,4-6.3,6.6-12,6.6h-0.1
			c-7.6,0-13.7-7.1-13.7-16.6c0-9.3,6.1-16.6,13.7-16.6h0.1c5.7,0,9.7,2.6,12,6.7v-6.4H354.7z M350.1,393.9c0-0.7,0.1-1.4,0.1-2.1
			c-0.4-6.4-4.3-11.2-10.2-11.2h-0.1c-7,0-11,5.1-11,12.2c0,7.3,4.1,12.2,11,12.2h0.1C345.8,405,349.7,400.2,350.1,393.9z"/>
		<path class="st1" d="M391.5,389.2V409h-4.5v-19.8c0-4.8-3.9-8.7-8.7-8.7c-4.9,0-8.8,4-8.8,8.7V409h-4.5v-32.5h4.5v5.4
			c2.6-3.8,6.6-5.8,10.8-5.8C386.3,376.1,391.5,382,391.5,389.2z"/>
		<path class="st1" d="M417.4,392h-18.2v-4.2h18.2V392z"/>
		<path class="st1" d="M449.5,363.6v32.1c0,7.5-6.1,13.6-13.6,13.6c-7.5,0-13.6-6.1-13.6-13.6v-4.9h4.5v4.9c0,5,4,9.1,9.1,9.1
			c5,0,9.1-4,9.1-9.1v-32.1H449.5z"/>
		<path class="st1" d="M472.5,404.8c6,0,9-4.3,9.5-5.9h4.9c-0.4,2.6-4.7,10.5-14.4,10.5c-9.4,0-15.4-7.3-15.4-16.6
			c0-9.2,6.2-16.6,15.2-16.6s15.2,7.4,15.2,16c0,0.8-0.1,1.5-0.1,2.3h-25.6C462.3,400.4,466.2,404.8,472.5,404.8z M482.8,390.3
			c-0.8-5.3-4.7-9.6-10.5-9.6c-5.7,0-9.6,4.2-10.5,9.6H482.8z"/>
		<path class="st1" d="M527.1,409h-4.7l-8.1-25.2l-7.8,25.2h-4.7l-11.2-32.5h4.7l8.8,25.4l7.9-25.4h4.6l8.2,25.5l8.8-25.5h4.7
			L527.1,409z"/>
		<path class="st1" d="M550.1,367c0,2.1-1.6,3.8-3.8,3.8c-2.1,0-3.8-1.7-3.8-3.8c0-2.1,1.6-3.8,3.8-3.8
			C548.5,363.2,550.1,364.9,550.1,367z M548.5,409h-4.5v-32.5h4.5V409z"/>
		<path class="st1" d="M563,403.3c1.3,1.1,3,1.8,5,1.8c4.4,0,6.8-2.4,6.8-5.3c0-3-2-4.4-6.7-5.4l-3.3-0.8c-3.2-0.8-7.6-2.6-7.6-8.4
			c0-4.7,4.2-9.1,10.8-9c6.7,0.1,10.8,5.5,10.8,10.1h-4.6c0-1.4-0.7-2.9-1.9-4c-1.1-0.9-2.5-1.6-4.3-1.6c-3.6,0-6.2,1.9-6.2,4.5
			c0,2.6,1.6,3.9,4.9,4.6l3.6,0.8c6.2,1.3,9.2,4.7,9.2,9.3c0,5-4,9.6-11.3,9.6c-7.8,0-11.6-6-11.6-10.8h4.3
			C560.7,400.3,561.5,402.1,563,403.3z"/>
		<path class="st1" d="M613.8,389.2V409h-4.5v-19.8c0-4.8-3.9-8.7-8.7-8.7c-4.9,0-8.8,4-8.8,8.7V409h-4.5v-45.4h4.5v18.3
			c2.6-3.8,6.6-5.8,10.8-5.8C608.7,376.1,613.8,382,613.8,389.2z"/>
		<path class="st1" d="M644.1,394.6c0,2.8,1.4,5.9,3.8,7.9c1.6,1.4,3.8,2.3,6.3,2.3c6.2,0,9.4-4,9.4-8.2c0-4.5-2.8-6.8-8.9-8.4
			l-3.8-1c-6.7-1.8-10.1-5.2-10.1-11.9c0-6.2,5.5-12,13.7-12c8.9,0,13,7.4,13,13.2h-4.6c0-2.3-0.8-4.5-2.3-6.2
			c-1.5-1.5-3.6-2.5-6.2-2.5c-5.5,0-9,3.7-9,7.5c0,4,1.4,6,6.7,7.5l3.7,1.1c8.8,2.5,12.5,6.3,12.5,12.8c0,6.4-5.1,12.7-14,12.7
			c-8.3,0-14.9-6.6-14.9-14.8H644.1z"/>
		<path class="st1" d="M692.4,403.1v4.5c-0.4,0.3-2.7,1.8-5.2,1.8c-4.9,0-9.1-3-9.1-8.4v-20.6h-5.9v-3.9h5.9v-9.1h4.5v9.1h9.6v3.9
			h-9.6v20.4c0,3,1.9,4.1,4.4,4.1C689.3,404.9,691.9,403.6,692.4,403.1z"/>
		<path class="st1" d="M725.4,409h-4.5v-5.4c-2.6,3.8-6.6,5.8-10.8,5.8c-6.2,0-11.3-5.9-11.3-13.1v-19.8h4.5v19.8
			c0,4.8,3.9,8.7,8.7,8.7c4.9,0,8.8-4,8.8-8.7v-19.8h4.5V409z"/>
		<path class="st1" d="M764,409h-4.5v-5.9c-2.5,3.8-6.6,6.3-11.7,6.3c-7.6,0-14.1-7.3-14.1-16.6s6.5-16.6,14.1-16.6
			c5.1,0,9.1,2.5,11.7,6.4v-18.8h4.5V409z M759.5,392.7c0-6.9-3.7-12.2-10.2-12.2c-6.6,0-11,5.3-11,12.2c0,6.9,4.5,12.2,11,12.2
			C755.8,405,759.5,399.6,759.5,392.7z"/>
		<path class="st1" d="M780.5,367c0,2.1-1.6,3.8-3.8,3.8c-2.1,0-3.8-1.7-3.8-3.8c0-2.1,1.6-3.8,3.8-3.8
			C778.9,363.2,780.5,364.9,780.5,367z M778.9,409h-4.5v-32.5h4.5V409z"/>
		<path class="st1" d="M802.9,404.8c6,0,9-4.3,9.5-5.9h4.9c-0.4,2.6-4.7,10.5-14.4,10.5c-9.4,0-15.4-7.3-15.4-16.6
			c0-9.2,6.2-16.6,15.2-16.6s15.2,7.4,15.2,16c0,0.8-0.1,1.5-0.1,2.3h-25.6C792.7,400.4,796.6,404.8,802.9,404.8z M813.2,390.3
			c-0.8-5.3-4.7-9.6-10.5-9.6c-5.7,0-9.6,4.2-10.5,9.6H813.2z"/>
		<path class="st1" d="M829.6,403.3c1.3,1.1,3,1.8,5,1.8c4.4,0,6.8-2.4,6.8-5.3c0-3-2-4.4-6.7-5.4l-3.3-0.8
			c-3.2-0.8-7.6-2.6-7.6-8.4c0-4.7,4.2-9.1,10.8-9c6.7,0.1,10.8,5.5,10.8,10.1h-4.6c0-1.4-0.7-2.9-1.9-4c-1.1-0.9-2.5-1.6-4.3-1.6
			c-3.6,0-6.2,1.9-6.2,4.5c0,2.6,1.6,3.9,4.9,4.6l3.6,0.8c6.2,1.3,9.2,4.7,9.2,9.3c0,5-4,9.6-11.3,9.6c-7.8,0-11.6-6-11.6-10.8h4.3
			C827.3,400.3,828.2,402.1,829.6,403.3z"/>
		<path class="st1" d="M148.9,472.8c0,8.8-7.1,15.9-15.9,15.9c-8.8,0-15.9-7.1-15.9-15.9V443h4.5v29.9c0,6.2,5.1,11.3,11.3,11.3
			s11.3-5.1,11.3-11.3V443h4.5V472.8z"/>
		<path class="st1" d="M185.2,468.6v19.8h-4.5v-19.8c0-4.8-3.9-8.7-8.7-8.7c-4.9,0-8.8,4-8.8,8.7v19.8h-4.5v-32.5h4.5v5.4
			c2.6-3.8,6.6-5.8,10.8-5.8C180.1,455.5,185.2,461.4,185.2,468.6z"/>
		<path class="st1" d="M201.2,446.4c0,2.1-1.6,3.8-3.8,3.8c-2.1,0-3.8-1.7-3.8-3.8c0-2.1,1.6-3.8,3.8-3.8
			C199.6,442.6,201.2,444.2,201.2,446.4z M199.6,488.3H195v-32.5h4.5V488.3z"/>
		<path class="st1" d="M223.8,488.3h-4.9l-13.4-32.5h4.9l10.9,26.5l10.8-26.5h4.9L223.8,488.3z"/>
		<path class="st1" d="M256.1,484.2c6,0,9-4.3,9.5-5.9h4.9c-0.4,2.6-4.7,10.5-14.4,10.5c-9.4,0-15.4-7.3-15.4-16.6
			c0-9.2,6.2-16.6,15.2-16.6c8.9,0,15.2,7.4,15.2,16c0,0.8-0.1,1.5-0.1,2.3h-25.6C245.9,479.7,249.7,484.2,256.1,484.2z
			 M266.3,469.6c-0.8-5.3-4.7-9.6-10.5-9.6c-5.7,0-9.6,4.2-10.5,9.6H266.3z"/>
		<path class="st1" d="M294.6,455.6v4.3c-0.4-0.1-2.3-0.1-2.5-0.1c-4.5,0-8.7,3-8.7,9.5v19h-4.5v-32.5h4.5v4.9
			c1.8-3.1,4.5-5.2,8.1-5.2C292.9,455.5,294,455.6,294.6,455.6z"/>
		<path class="st1" d="M304.7,482.6c1.3,1.1,3,1.8,5,1.8c4.4,0,6.8-2.4,6.8-5.3c0-3-2-4.4-6.7-5.4l-3.3-0.8
			c-3.2-0.8-7.6-2.6-7.6-8.4c0-4.7,4.2-9.1,10.8-9c6.7,0.1,10.8,5.5,10.8,10.1h-4.6c0-1.4-0.7-2.9-1.9-4c-1.1-0.9-2.5-1.6-4.3-1.6
			c-3.6,0-6.2,1.9-6.2,4.5c0,2.6,1.6,3.9,4.9,4.6l3.6,0.8c6.2,1.3,9.2,4.7,9.2,9.3c0,5-4,9.6-11.3,9.6c-7.8,0-11.6-6-11.6-10.8h4.3
			C302.4,479.7,303.2,481.4,304.7,482.6z"/>
		<path class="st1" d="M335.1,446.4c0,2.1-1.6,3.8-3.8,3.8c-2.1,0-3.8-1.7-3.8-3.8c0-2.1,1.6-3.8,3.8-3.8
			C333.5,442.6,335.1,444.2,335.1,446.4z M333.5,488.3H329v-32.5h4.5V488.3z"/>
		<path class="st1" d="M360.4,482.5v4.5c-0.4,0.3-2.7,1.8-5.2,1.8c-4.9,0-9.1-3-9.1-8.4v-20.6h-5.9v-3.9h5.9v-9.1h4.5v9.1h9.6v3.9
			h-9.6v20.4c0,3,1.9,4.1,4.4,4.1C357.3,484.3,359.8,482.9,360.4,482.5z"/>
		<path class="st1" d="M392.7,487.2c0,9.6-5.4,16.7-14.7,16.7c-8.8,0-14.1-6.7-14.6-12.2h4.8c0.4,3.6,3.8,7.7,9.8,7.7
			c6.5,0,10.1-5,10.1-12.4v-4c-2.6,3.8-6.2,5.8-10.8,5.8c-6.2,0-11.3-5.9-11.3-13.1v-19.8h4.5v19.8c0,4.8,3.9,8.7,8.7,8.7
			c4.9,0,8.8-4,8.8-8.7v-19.8h4.5V487.2z"/>
		<path class="st1" d="M418.4,472.1c0-9.2,6.5-16.6,15.4-16.6h0.1c8.9,0,15.4,7.4,15.4,16.6c0,9.2-6.5,16.6-15.4,16.6h-0.1
			C424.9,488.7,418.4,481.3,418.4,472.1z M433.9,484.2c6.4,0,10.8-5.4,10.8-12.1c0-6.5-4.4-12.1-10.8-12.1h-0.1
			c-6.5,0.1-10.9,5.4-10.9,12.1S427.3,484.2,433.9,484.2L433.9,484.2z"/>
		<path class="st1" d="M463.7,451.7v4.2h9.1v3.9h-9.1v28.6h-4.5v-28.6h-5.4v-3.9h5.4v-4.3c0-5.3,4.3-8.9,9.1-8.9
			c1.3,0,3.2,0.4,4.6,1.2v4.4c-1.4-0.7-3-1.1-4.7-1.1C465.7,447.1,463.7,448.8,463.7,451.7z"/>
		<path class="st1" d="M527.1,456.7c0,6.9-5.7,13.7-13.7,13.7h-12.3v18h-4.5V443h16.9C521.3,443,527.1,449.8,527.1,456.7z
			 M522.5,456.7c0-5-4.1-9.1-9.1-9.1h-12.3v18.3h12.3C518.4,465.8,522.5,461.6,522.5,456.7z"/>
		<path class="st1" d="M532.2,472.1c0-9.2,6.5-16.6,15.4-16.6h0.1c8.9,0,15.4,7.4,15.4,16.6c0,9.2-6.5,16.6-15.4,16.6h-0.1
			C538.7,488.7,532.2,481.3,532.2,472.1z M547.7,484.2c6.4,0,10.8-5.4,10.8-12.1c0-6.5-4.4-12.1-10.8-12.1h-0.1
			c-6.5,0.1-10.9,5.4-10.9,12.1S541.1,484.2,547.7,484.2L547.7,484.2z"/>
		<path class="st1" d="M587.6,482.5v4.5c-0.4,0.3-2.7,1.8-5.2,1.8c-4.9,0-9.1-3-9.1-8.4v-20.6h-5.9v-3.9h5.9v-9.1h4.5v9.1h9.6v3.9
			h-9.6v20.4c0,3,1.9,4.1,4.4,4.1C584.5,484.3,587,482.9,587.6,482.5z"/>
		<path class="st1" d="M598.4,482.6c1.3,1.1,3,1.8,5,1.8c4.4,0,6.8-2.4,6.8-5.3c0-3-2-4.4-6.7-5.4l-3.3-0.8
			c-3.2-0.8-7.6-2.6-7.6-8.4c0-4.7,4.2-9.1,10.8-9c6.7,0.1,10.8,5.5,10.8,10.1h-4.6c0-1.4-0.7-2.9-1.9-4c-1.1-0.9-2.5-1.6-4.3-1.6
			c-3.6,0-6.2,1.9-6.2,4.5c0,2.6,1.6,3.9,4.9,4.6l3.6,0.8c6.2,1.3,9.2,4.7,9.2,9.3c0,5-4,9.6-11.3,9.6c-7.8,0-11.6-6-11.6-10.8h4.3
			C596.1,479.7,596.9,481.4,598.4,482.6z"/>
		<path class="st1" d="M650.9,488.3h-4.5v-5.9c-2.5,3.8-6.6,6.3-11.7,6.3c-7.6,0-14.1-7.3-14.1-16.6s6.5-16.6,14.1-16.6
			c5.1,0,9.1,2.5,11.7,6.4V443h4.5V488.3z M646.3,472.1c0-6.9-3.7-12.2-10.2-12.2c-6.6,0-11,5.3-11,12.2s4.5,12.2,11,12.2
			C642.7,484.3,646.3,479,646.3,472.1z"/>
		<path class="st1" d="M689.5,455.8v3.9V472c0,5.4,0,7.1,0,12.5v0.1v3.8h-4.6c0-3.1,0-5,0-6.2c-2.3,4-6.3,6.6-12,6.6h-0.1
			c-7.6,0-13.7-7.1-13.7-16.6c0-9.3,6.1-16.6,13.7-16.6h0.1c5.7,0,9.7,2.6,12,6.7v-6.4H689.5z M684.9,473.2c0-0.7,0.1-1.4,0.1-2.1
			c-0.4-6.4-4.3-11.2-10.2-11.2h-0.1c-7,0-11,5.1-11,12.2c0,7.3,4.1,12.2,11,12.2h0.1C680.5,484.3,684.5,479.5,684.9,473.2z"/>
		<path class="st1" d="M745.5,467.4v20.9h-4.5v-20.5c0-4.4-3.6-7.9-8.1-7.9s-8.1,3.6-8.1,7.9v20.5h-4.5v-20.5c0-4.4-3.7-8-8-8
			c-4.5,0-8.1,3.7-8.1,8v20.5h-4.5v-32.5h4.5v4.2c2.1-2.8,5.5-4.5,9.2-4.5c4.2,0,8.1,2.5,10,6.2l0.2,0.4c1.8-3.8,5.9-6.6,10.5-6.6
			C740.2,455.5,745.5,461.2,745.5,467.4z"/>
	</g>
</g>
</svg>
