<?xml version="1.0" encoding="utf-8"?>
<!-- Generator: Adobe Illustrator 26.5.2, SVG Export Plug-In . SVG Version: 6.00 Build 0)  -->
<svg version="1.1" id="Ebene_1" xmlns="http://www.w3.org/2000/svg" xmlns:xlink="http://www.w3.org/1999/xlink" x="0px" y="0px"
	 viewBox="0 0 265 61.5" style="enable-background:new 0 0 265 61.5;" xml:space="preserve">
<style type="text/css">
	.st0{fill:#FFFFFF;}
</style>
<g>
	<path class="st0" d="M11.5,47.3c1.65,0,2.96-0.42,3.93-1.27c0.97-0.85,1.46-2,1.46-3.45c0-1.35-0.45-2.47-1.36-3.36
		c-0.52-0.51-1.12-0.86-1.8-1.05c-0.68-0.18-1.68-0.28-3-0.28H8v15.83h2.39v-6.43L11.5,47.3L11.5,47.3z M10.39,40.11h0.79
		c2.26,0,3.39,0.82,3.39,2.45c0,1.69-1.1,2.53-3.29,2.53h-0.89V40.11L10.39,40.11z M19.45,37.9v15.83h7.04v-2.25h-4.66V37.89h-2.38
		V37.9z M40.7,53.73h2.61L35.75,36.9l-7.83,16.83h2.57l1.76-3.85h6.78L40.7,53.73L40.7,53.73z M33.26,47.64l2.46-5.38l2.35,5.38
		H33.26L33.26,47.64z M52.24,37.59c-2.6,0-4.73,0.97-6.37,2.9c-1.33,1.58-2,3.38-2,5.39c0,2.25,0.8,4.17,2.39,5.76
		c1.6,1.58,3.53,2.37,5.79,2.37c1.5,0,2.94-0.39,4.31-1.16v-2.88c-0.39,0.33-0.76,0.61-1.11,0.84s-0.69,0.42-1.02,0.55
		c-0.59,0.27-1.3,0.41-2.14,0.41c-1.63,0-3-0.57-4.12-1.71c-1.12-1.14-1.68-2.54-1.68-4.2c0-1.68,0.56-3.1,1.68-4.27
		c1.11-1.17,2.48-1.75,4.11-1.75c1.48,0,2.91,0.58,4.29,1.73v-2.83C55.04,37.98,53.66,37.59,52.24,37.59L52.24,37.59L52.24,37.59z
		 M68.22,37.9h-8.74v15.83h8.74v-2.25h-6.35v-5.29h6.16v-2.25h-6.16v-3.8h6.35V37.9L68.22,37.9z M79.95,51.9
		c1.63,1.42,3.46,2.12,5.51,2.12c2.31,0,4.28-0.8,5.92-2.39c1.63-1.59,2.44-3.52,2.44-5.79c0-2.26-0.81-4.2-2.43-5.81
		c-1.61-1.61-3.55-2.42-5.8-2.42c-2.28,0-4.24,0.8-5.87,2.4c-1.63,1.6-2.45,3.51-2.45,5.74C77.26,48.28,78.15,50.33,79.95,51.9
		L79.95,51.9L79.95,51.9z M81.37,41.57c1.13-1.15,2.53-1.72,4.17-1.72c1.65,0,3.04,0.57,4.16,1.72c1.13,1.14,1.69,2.56,1.69,4.25
		c0,1.67-0.57,3.08-1.71,4.25c-1.14,1.15-2.54,1.72-4.2,1.72c-1.53,0-2.88-0.56-4.05-1.69c-1.18-1.13-1.76-2.57-1.76-4.32
		C79.67,44.11,80.24,42.71,81.37,41.57L81.37,41.57L81.37,41.57z M104.82,37.9h-7.91v15.83h2.39v-7.54h5.32v-2.25H99.3v-3.8h5.52
		V37.9L104.82,37.9z M122.19,45.44c0.64-0.81,0.96-1.77,0.96-2.89c0-1.44-0.51-2.59-1.54-3.47c-0.93-0.79-2.44-1.18-4.53-1.18h-2.8
		v15.83h2.39v-6.48h0.43l4.52,6.48h2.92l-4.9-6.75C120.7,46.76,121.55,46.24,122.19,45.44L122.19,45.44z M116.67,40.15h0.85
		c2.2,0,3.3,0.81,3.3,2.43c0,1.73-1.13,2.59-3.39,2.59h-0.76L116.67,40.15L116.67,40.15z M135.77,37.9h-8.74v15.83h8.74v-2.25h-6.35
		v-5.29h6.16v-2.25h-6.16v-3.8h6.35V37.9L135.77,37.9z M140.93,53.73l1.7-9.57l4.55,10.29l4.69-10.28l1.53,9.56h2.45l-2.99-17.02
		l-5.63,12.3l-5.43-12.3l-3.33,17.02H140.93L140.93,53.73z M168.04,37.9h-8.74v15.83h8.74v-2.25h-6.35v-5.29h6.16v-2.25h-6.16v-3.8
		h6.35V37.9L168.04,37.9z M173.2,53.73l1.7-9.57l4.55,10.29l4.69-10.28l1.53,9.56h2.45l-2.99-17.02l-5.63,12.3l-5.43-12.3
		l-3.33,17.02H173.2L173.2,53.73z M199.49,45.44c0.64-0.81,0.96-1.77,0.96-2.89c0-1.44-0.51-2.59-1.54-3.47
		c-0.93-0.79-2.44-1.18-4.53-1.18h-2.8v15.83h2.39v-6.48h0.43l4.52,6.48h2.92l-4.9-6.75C198,46.76,198.84,46.24,199.49,45.44
		L199.49,45.44z M193.97,40.15h0.85c2.2,0,3.3,0.81,3.3,2.43c0,1.73-1.13,2.59-3.39,2.59h-0.76L193.97,40.15L193.97,40.15z
		 M213.06,37.9h-8.74v15.83h8.74v-2.25h-6.35v-5.29h6.16v-2.25h-6.16v-3.8h6.35V37.9L213.06,37.9z M218.7,53.73V42.65l11.55,12.05
		V37.9h-2.39v11l-11.55-12.08v16.91L218.7,53.73L218.7,53.73z M241.86,37.59c-2.6,0-4.73,0.97-6.37,2.9c-1.33,1.58-2,3.38-2,5.39
		c0,2.25,0.8,4.17,2.39,5.76c1.6,1.58,3.53,2.37,5.79,2.37c1.5,0,2.94-0.39,4.31-1.16v-2.88c-0.39,0.33-0.76,0.61-1.11,0.84
		c-0.35,0.23-0.69,0.42-1.02,0.55c-0.59,0.27-1.3,0.41-2.14,0.41c-1.63,0-3-0.57-4.12-1.71c-1.12-1.14-1.68-2.54-1.68-4.2
		c0-1.68,0.56-3.1,1.68-4.27c1.11-1.17,2.48-1.75,4.11-1.75c1.48,0,2.9,0.58,4.29,1.73v-2.83
		C244.66,37.98,243.28,37.59,241.86,37.59L241.86,37.59L241.86,37.59z M257.84,37.9h-8.74v15.83h8.74v-2.25h-6.35v-5.29h6.16v-2.25
		h-6.16v-3.8h6.35V37.9L257.84,37.9z"/>
	<path class="st0" d="M13.32,8.74H8.17v19.79h5.15v-8.16h7.43v8.16h5.15V8.74h-5.15v7.64h-7.43V8.74L13.32,8.74z M36.19,21.18
		l2.31-6.59l2.31,6.59H36.19L36.19,21.18z M43.35,28.53h5.49L41.31,8.74h-5.62l-7.53,19.79h5.49l1.18-3.44h7.35L43.35,28.53
		L43.35,28.53z M56.24,8.74h-5.15v19.79h5.15v-8.58l6.69,8.58h6.67l-8.58-10.42l7.85-9.37h-6.35l-6.27,8.16L56.24,8.74L56.24,8.74z
		 M77.03,8.74h-5.15v19.79h5.15v-8.16h7.43v8.16h5.15V8.74h-5.15v7.64h-7.43V8.74L77.03,8.74z M106.67,9.79
		c-0.98-0.53-2-0.92-3.07-1.19s-2.09-0.41-3.07-0.41c-1.05,0-2,0.16-2.85,0.47c-0.85,0.32-1.57,0.76-2.15,1.33
		c-0.59,0.57-1.04,1.25-1.36,2.05c-0.32,0.8-0.49,1.68-0.49,2.66s0.15,1.79,0.46,2.43c0.31,0.64,0.71,1.17,1.21,1.59
		c0.5,0.42,1.07,0.76,1.71,1.01c0.64,0.25,1.29,0.49,1.96,0.7c0.56,0.19,1.04,0.37,1.43,0.52c0.39,0.16,0.71,0.33,0.96,0.51
		c0.24,0.18,0.42,0.39,0.52,0.6c0.11,0.22,0.16,0.48,0.16,0.77c0,0.49-0.21,0.93-0.62,1.31c-0.41,0.39-1.04,0.58-1.88,0.58
		c-0.73,0-1.48-0.17-2.23-0.5s-1.51-0.84-2.28-1.52l-2.2,4.15c2.13,1.49,4.45,2.23,6.96,2.23c1.21,0,2.29-0.16,3.24-0.49
		c0.95-0.32,1.76-0.78,2.41-1.36c0.66-0.59,1.16-1.29,1.5-2.11c0.34-0.82,0.51-1.74,0.51-2.76c0-1.5-0.39-2.73-1.17-3.66
		c-0.78-0.94-2.01-1.68-3.69-2.24c-0.42-0.14-0.84-0.27-1.27-0.39c-0.43-0.12-0.81-0.27-1.15-0.43c-0.34-0.17-0.62-0.36-0.83-0.59
		s-0.32-0.52-0.32-0.87c0-0.51,0.21-0.92,0.63-1.23s0.96-0.47,1.63-0.47c0.52,0,1.07,0.11,1.63,0.33s1.12,0.56,1.68,1.01
		L106.67,9.79L106.67,9.79z M115.85,8.74h-5.15v19.79h5.15v-8.16h7.43v8.16h5.14V8.74h-5.14v7.64h-7.43V8.74L115.85,8.74z
		 M138.72,21.18l2.31-6.59l2.31,6.59H138.72L138.72,21.18z M145.88,28.53h5.49l-7.53-19.79h-5.62l-7.53,19.79h5.49l1.18-3.44h7.35
		L145.88,28.53L145.88,28.53z M158.77,12.7h0.97c1.01,0,1.79,0.21,2.34,0.63c0.54,0.42,0.81,1.02,0.81,1.81s-0.27,1.39-0.81,1.81
		c-0.54,0.42-1.32,0.63-2.34,0.63h-0.97V12.7L158.77,12.7z M163.86,20.42c1.42-0.33,2.49-0.97,3.22-1.9
		c0.73-0.94,1.09-2.16,1.09-3.66c0-0.84-0.14-1.63-0.41-2.36c-0.27-0.73-0.67-1.38-1.21-1.94c-0.53-0.56-1.21-1-2.03-1.33
		c-0.82-0.32-1.78-0.49-2.89-0.49h-8.01v19.79h5.14v-7.61l4.91,7.61h6.41L163.86,20.42L163.86,20.42z M178.38,21.18l2.31-6.59
		l2.31,6.59H178.38L178.38,21.18z M185.55,28.53h5.49l-7.53-19.79h-5.62l-7.53,19.79h5.49l1.18-3.44h7.35L185.55,28.53L185.55,28.53
		z M213.59,28.53h3.27L207.41,7.5l-9.79,21.03h3.22l2.2-4.81h8.47L213.59,28.53L213.59,28.53z M204.28,20.92l3.08-6.73l2.93,6.73
		H204.28L204.28,20.92z M225.18,8.36c-1.69,0-3.11,0.5-4.24,1.51c-1.14,1-1.7,2.24-1.7,3.73c0,2.2,1.35,3.88,4.06,5.02l1.91,0.79
		c0.5,0.21,0.92,0.44,1.28,0.67c0.36,0.24,0.65,0.49,0.88,0.76c0.23,0.27,0.39,0.56,0.5,0.88s0.16,0.67,0.16,1.06
		c0,0.96-0.31,1.75-0.92,2.37c-0.61,0.62-1.39,0.94-2.32,0.94c-1.18,0-2.08-0.43-2.69-1.28c-0.34-0.44-0.58-1.25-0.72-2.41
		l-3.03,0.67c0.27,1.85,0.96,3.28,2.06,4.29c1.12,1.02,2.54,1.53,4.26,1.53c1.81,0,3.33-0.6,4.55-1.79
		c1.21-1.19,1.82-2.69,1.82-4.51c0-1.36-0.37-2.51-1.11-3.44c-0.74-0.94-1.92-1.73-3.53-2.38l-1.97-0.81
		c-1.44-0.59-2.15-1.37-2.15-2.33c0-0.7,0.27-1.28,0.82-1.74c0.55-0.47,1.23-0.7,2.06-0.7c0.67,0,1.23,0.14,1.65,0.41
		c0.41,0.24,0.84,0.75,1.29,1.54l2.42-1.44C229.24,9.47,227.46,8.36,225.18,8.36L225.18,8.36L225.18,8.36z M252.76,28.53h3.27
		L246.58,7.5l-9.79,21.03h3.22l2.2-4.81h8.47L252.76,28.53L252.76,28.53z M243.46,20.92l3.08-6.73l2.94,6.73H243.46L243.46,20.92z"
		/>
</g>
</svg>
