<?xml version="1.0" encoding="utf-8"?>
<!-- Generator: Adobe Illustrator 26.5.2, SVG Export Plug-In . SVG Version: 6.00 Build 0)  -->
<svg version="1.1" id="Ebene_1" xmlns="http://www.w3.org/2000/svg" xmlns:xlink="http://www.w3.org/1999/xlink" x="0px" y="0px"
	 viewBox="0 0 273.62 52.33" style="enable-background:new 0 0 273.62 52.33;" xml:space="preserve">
<style type="text/css">
	.st0{fill:#FFFFFF;}
</style>
<g>
	<path style="fill:#FFFFFF;" d="M268.56,33.72h-8.74
		v15.83h8.74v-2.24h-6.35v-5.29h6.16v-2.25h-6.16v-3.8h6.35V33.72z M252.59,33.42c-2.6,0-4.73,0.97-6.37,2.9
		c-1.33,1.58-2,3.38-2,5.39c0,2.25,0.8,4.17,2.39,5.76c1.6,1.58,3.53,2.37,5.79,2.37c1.5,0,2.94-0.39,4.31-1.16V45.8
		c-0.39,0.33-0.76,0.61-1.11,0.84c-0.35,0.23-0.69,0.42-1.02,0.55c-0.59,0.27-1.3,0.41-2.14,0.41c-1.63,0-3-0.57-4.12-1.71
		c-1.12-1.14-1.68-2.54-1.68-4.2c0-1.68,0.56-3.1,1.68-4.27c1.11-1.17,2.49-1.75,4.11-1.75c1.48,0,2.9,0.58,4.29,1.73v-2.83
		C255.38,33.8,254.01,33.42,252.59,33.42 M229.42,49.56V38.47l11.55,12.05v-16.8h-2.39v11l-11.54-12.08v16.91H229.42z M214.89,43.47
		l2.46-5.38l2.35,5.38H214.89z M222.33,49.56h2.61l-7.56-16.83l-7.83,16.83h2.57l1.76-3.85h6.78L222.33,49.56z M201.01,35.97h0.85
		c2.2,0,3.3,0.81,3.3,2.43c0,1.73-1.13,2.59-3.39,2.59h-0.76V35.97z M206.53,41.26c0.64-0.81,0.96-1.77,0.96-2.89
		c0-1.43-0.51-2.59-1.54-3.47c-0.93-0.79-2.44-1.18-4.53-1.18h-2.8v15.83h2.39v-6.48h0.43l4.52,6.48h2.92l-4.9-6.75
		C205.04,42.58,205.88,42.07,206.53,41.26 M188.49,42.52h1.21c1.28,0,2.18,0.23,2.68,0.69c0.51,0.47,0.77,1.04,0.77,1.72
		c0,0.7-0.27,1.28-0.8,1.74c-0.51,0.42-1.3,0.64-2.38,0.64h-1.48V42.52z M188.49,35.92h0.84c0.81,0,1.42,0.19,1.85,0.58
		c0.42,0.39,0.64,0.95,0.64,1.7c0,0.77-0.21,1.35-0.62,1.74c-0.41,0.39-1.07,0.59-1.95,0.59h-0.75V35.92z M189.72,49.56
		c1.08,0,1.98-0.1,2.7-0.3c0.66-0.2,1.25-0.57,1.77-1.1c0.88-0.85,1.31-1.9,1.31-3.14c0-0.94-0.25-1.77-0.74-2.48
		c-0.49-0.72-1.15-1.22-1.99-1.51c0.87-0.79,1.3-1.75,1.3-2.88c0-0.62-0.13-1.24-0.4-1.85c-0.26-0.6-0.61-1.1-1.06-1.51
		c-0.44-0.39-0.97-0.67-1.61-0.83c-0.63-0.16-1.47-0.25-2.53-0.25h-2.38v15.83H189.72z M167.72,49.56l1.7-9.57l4.55,10.29L178.66,40
		l1.53,9.56h2.45l-2.99-17.02l-5.63,12.3l-5.43-12.3l-3.33,17.02H167.72z M162.56,33.72h-8.74v15.83h8.74v-2.24h-6.35v-5.29h6.16
		v-2.25h-6.16v-3.8h6.35V33.72z M135.45,49.56l1.7-9.57l4.55,10.29L146.39,40l1.53,9.56h2.45l-2.99-17.02l-5.63,12.3l-5.43-12.3
		l-3.33,17.02H135.45z M130.29,33.72h-8.74v15.83h8.74v-2.24h-6.35v-5.29h6.16v-2.25h-6.16v-3.8h6.35V33.72z M111.19,35.97h0.85
		c2.2,0,3.3,0.81,3.3,2.43c0,1.73-1.13,2.59-3.39,2.59h-0.76V35.97z M116.71,41.26c0.64-0.81,0.96-1.77,0.96-2.89
		c0-1.43-0.51-2.59-1.54-3.47c-0.93-0.79-2.44-1.18-4.53-1.18h-2.8v15.83h2.39v-6.48h0.43l4.52,6.48h2.92l-4.9-6.75
		C115.22,42.58,116.07,42.07,116.71,41.26 M99.34,33.72h-7.91v15.83h2.39v-7.54h5.32v-2.25h-5.32v-3.8h5.52V33.72z M75.89,37.4
		c1.13-1.15,2.53-1.72,4.17-1.72c1.65,0,3.04,0.58,4.16,1.72c1.13,1.14,1.69,2.56,1.69,4.24c0,1.67-0.57,3.08-1.71,4.24
		c-1.14,1.15-2.54,1.72-4.21,1.72c-1.53,0-2.88-0.56-4.05-1.69c-1.18-1.13-1.76-2.57-1.76-4.32C74.19,39.93,74.76,38.53,75.89,37.4
		 M74.47,47.72c1.63,1.42,3.46,2.12,5.51,2.12c2.31,0,4.28-0.8,5.92-2.39c1.63-1.59,2.44-3.52,2.44-5.79c0-2.26-0.81-4.2-2.43-5.81
		c-1.61-1.61-3.55-2.42-5.8-2.42c-2.28,0-4.24,0.8-5.87,2.4c-1.63,1.6-2.45,3.51-2.45,5.74C71.78,44.11,72.67,46.16,74.47,47.72
		 M62.74,33.72H54v15.83h8.74v-2.24h-6.35v-5.29h6.16v-2.25h-6.16v-3.8h6.35V33.72z M46.76,33.42c-2.6,0-4.73,0.97-6.37,2.9
		c-1.33,1.58-2,3.38-2,5.39c0,2.25,0.8,4.17,2.39,5.76c1.6,1.58,3.53,2.37,5.79,2.37c1.5,0,2.94-0.39,4.31-1.16V45.8
		c-0.39,0.33-0.76,0.61-1.11,0.84c-0.35,0.23-0.69,0.42-1.02,0.55c-0.59,0.27-1.3,0.41-2.14,0.41c-1.63,0-3-0.57-4.12-1.71
		c-1.12-1.14-1.68-2.54-1.68-4.2c0-1.68,0.56-3.1,1.68-4.27c1.11-1.17,2.49-1.75,4.11-1.75c1.48,0,2.9,0.58,4.29,1.73v-2.83
		C49.56,33.8,48.18,33.42,46.76,33.42 M27.78,43.47l2.46-5.38l2.35,5.38H27.78z M35.22,49.56h2.62l-7.56-16.83l-7.83,16.83h2.57
		l1.76-3.85h6.78L35.22,49.56z M13.97,33.72v15.83h7.04v-2.24h-4.66V33.72H13.97z M4.91,35.93H5.7c2.26,0,3.39,0.82,3.39,2.45
		c0,1.69-1.1,2.53-3.29,2.53H4.91V35.93z M6.02,43.13c1.65,0,2.96-0.42,3.93-1.27c0.97-0.85,1.46-2,1.46-3.45
		c0-1.35-0.45-2.47-1.36-3.36C9.52,34.53,8.91,34.19,8.23,34c-0.68-0.18-1.68-0.28-3.01-0.28H2.52v15.83h2.39v-6.43H6.02z"/>
	<path style="clip-path:url(#SVGID_00000166672625317616868260000016189345853522310842_);fill:#FFFFFF;" d="M253.8,16.24l3.28-7.18
		l3.13,7.18H253.8z M263.73,24.36h3.49L257.14,1.92l-10.45,22.44h3.43l2.35-5.13h9.04L263.73,24.36z M234.3,2.84
		c-1.8,0-3.31,0.54-4.53,1.61c-1.21,1.07-1.82,2.39-1.82,3.98c0,2.35,1.44,4.14,4.33,5.36l2.04,0.85c0.53,0.23,0.98,0.47,1.37,0.72
		c0.38,0.25,0.7,0.52,0.94,0.81c0.24,0.29,0.42,0.6,0.53,0.94s0.17,0.72,0.17,1.13c0,1.02-0.33,1.86-0.98,2.53
		c-0.66,0.67-1.48,1-2.48,1c-1.26,0-2.21-0.45-2.87-1.37c-0.37-0.47-0.62-1.33-0.77-2.57l-3.23,0.71c0.29,1.97,1.03,3.5,2.2,4.58
		c1.19,1.08,2.71,1.63,4.54,1.63c1.93,0,3.55-0.64,4.85-1.91c1.29-1.27,1.94-2.87,1.94-4.81c0-1.45-0.4-2.67-1.19-3.67
		c-0.79-1-2.05-1.84-3.76-2.54l-2.11-0.86c-1.53-0.63-2.3-1.46-2.3-2.49c0-0.75,0.29-1.37,0.88-1.86c0.58-0.5,1.32-0.75,2.2-0.75
		c0.72,0,1.31,0.15,1.76,0.44c0.44,0.26,0.9,0.8,1.38,1.64L240,6.39C238.63,4.02,236.73,2.84,234.3,2.84 M212.02,16.24l3.28-7.18
		l3.13,7.18H212.02z M221.94,24.36h3.49L215.35,1.92l-10.45,22.44h3.43l2.35-5.13h9.04L221.94,24.36z M192.03,24.36h5.85
		l-8.04-21.11h-5.99l-8.04,21.11h5.85l1.26-3.67h7.84L192.03,24.36z M184.38,16.52l2.46-7.03l2.46,7.03H184.38z M168.9,15.7
		c1.51-0.35,2.65-1.03,3.43-2.03c0.78-1,1.16-2.3,1.16-3.91c0-0.9-0.15-1.74-0.43-2.52c-0.29-0.78-0.72-1.47-1.29-2.07
		c-0.57-0.6-1.29-1.07-2.17-1.41c-0.88-0.35-1.9-0.52-3.08-0.52h-8.54v21.11h5.49v-8.12l5.24,8.12h6.83L168.9,15.7z M163.47,7.47
		h1.04c1.08,0,1.91,0.22,2.49,0.67c0.58,0.45,0.87,1.09,0.87,1.93s-0.29,1.48-0.87,1.93c-0.58,0.45-1.41,0.67-2.49,0.67h-1.04V7.47z
		 M149.72,24.36h5.85l-8.04-21.11h-5.99l-8.04,21.11h5.85l1.26-3.67h7.84L149.72,24.36z M142.08,16.52l2.46-7.03l2.46,7.03H142.08z
		 M117.69,3.24h-5.49v21.11h5.49v-8.71h7.92v8.71h5.49V3.24h-5.49v8.15h-7.92V3.24z M107.89,4.36c-1.05-0.56-2.14-0.98-3.28-1.27
		c-1.14-0.29-2.23-0.43-3.28-0.43c-1.12,0-2.13,0.17-3.04,0.5C97.39,3.5,96.63,3.97,96,4.57c-0.63,0.61-1.11,1.33-1.46,2.18
		c-0.35,0.85-0.52,1.8-0.52,2.84c0,1.05,0.16,1.91,0.49,2.59c0.33,0.68,0.76,1.25,1.29,1.69c0.53,0.45,1.14,0.81,1.82,1.08
		c0.68,0.27,1.38,0.52,2.09,0.74c0.6,0.21,1.11,0.39,1.53,0.56s0.76,0.35,1.02,0.55c0.26,0.2,0.45,0.41,0.56,0.64
		c0.11,0.23,0.17,0.51,0.17,0.83c0,0.52-0.22,0.99-0.66,1.4c-0.44,0.41-1.11,0.62-2,0.62c-0.78,0-1.58-0.18-2.38-0.53
		c-0.8-0.35-1.61-0.9-2.44-1.62l-2.35,4.42c2.28,1.59,4.75,2.38,7.42,2.38c1.29,0,2.44-0.17,3.46-0.52
		c1.02-0.34,1.88-0.83,2.58-1.46c0.7-0.62,1.23-1.38,1.6-2.25c0.36-0.88,0.55-1.86,0.55-2.94c0-1.6-0.42-2.91-1.25-3.91
		c-0.83-1-2.14-1.8-3.93-2.39c-0.45-0.15-0.9-0.29-1.36-0.42c-0.46-0.13-0.87-0.28-1.23-0.46c-0.36-0.18-0.66-0.39-0.88-0.63
		c-0.22-0.24-0.34-0.55-0.34-0.92c0-0.54,0.22-0.98,0.67-1.32c0.45-0.34,1.03-0.5,1.74-0.5c0.56,0,1.14,0.12,1.74,0.35
		c0.6,0.23,1.19,0.59,1.79,1.08L107.89,4.36z M76.28,3.24h-5.49v21.11h5.49v-8.71h7.92v8.71h5.49V3.24H84.2v8.15h-7.92V3.24z
		 M54.1,3.24h-5.49v21.11h5.49V15.2l7.14,9.16h7.11L59.2,13.24l8.37-10h-6.78l-6.69,8.71V3.24z M40.35,24.36h5.85L38.17,3.24h-5.99
		l-8.04,21.11h5.85l1.26-3.67h7.84L40.35,24.36z M32.71,16.52l2.46-7.03l2.46,7.03H32.71z M8.32,3.24H2.83v21.11h5.49v-8.71h7.92
		v8.71h5.49V3.24h-5.49v8.15H8.32V3.24z"/>
</g>
</svg>
